<svg xmlns="http://www.w3.org/2000/svg" viewBox="0 0 64 64">

<defs>

  <linearGradient id="bg" x1="0" y1="0" x2="1" y2="1">
    <stop offset="0%" stop-color="#6366f1"/>
    <stop offset="100%" stop-color="#4f46e5"/>
  </linearGradient>

  <linearGradient id="core" x1="0" y1="0" x2="1" y2="1">
    <stop offset="0%" stop-color="#FFFFFF"/>
    <stop offset="100%" stop-color="#C7D2FE"/>
  </linearGradient>

</defs>


<!-- Background -->
<rect width="64" height="64" rx="18" fill="url(#bg)"/>


<!-- Knowledge Layers -->
<path
d="M18 22L32 15L46 22L32 29Z"
fill="none"
stroke="white"
stroke-width="2"
opacity=".9"/>

<path
d="M18 30L32 37L46 30"
fill="none"
stroke="white"
stroke-width="2"
opacity=".55"/>

<path
d="M18 38L32 45L46 38"
fill="none"
stroke="white"
stroke-width="2"
opacity=".3"/>


<!-- Vector Nodes -->
<circle cx="25" cy="26" r="2" fill="white"/>
<circle cx="39" cy="26" r="2" fill="white"/>


<!-- Vector Graph -->
<path
d="
M25 26L32 33
M39 26L32 33"
stroke="white"
stroke-width="1.3"
opacity=".85"/>


<!-- AI Core Glow -->
<circle
cx="32"
cy="33"
r="11"
fill="#4338CA"
opacity=".25"/>


<!-- AI Reasoning Core -->
<circle
cx="32"
cy="33"
r="8"
fill="url(#core)"
stroke="white"
stroke-width="1.5"/>


<!-- Inner AI Symbol -->
<path
d="
M28 33
L32 29
L36 33
L32 37Z"
fill="#4f46e5"/>


<!-- Center Intelligence Node -->
<circle
cx="32"
cy="33"
r="2"
fill="white"/>


<!-- Neural Pulse -->
<circle
cx="32"
cy="33"
r="14"
fill="none"
stroke="white"
stroke-width="1"
opacity=".18"/>

</svg>